<svg xmlns="http://www.w3.org/2000/svg" viewBox="0 0 108 187"><path d="M40 159s3.5 12.9 0 15.1-14.3 9.2-10.8 10.3 9.1-5.6 9.1-5.6c-12.3 10.4 2.6 12.6 3.2-.3 0 0 8.6 4.8 10 1.7s-7.5-1-7-7l.5-6.1-.8-8.1zm29.8 0s-3.5 12.9 0 15.1 14.2 9.2 10.7 10.3-9-5.6-9-5.6c12.3 10.4-2.6 12.6-3.3-.3 0 0-8.5 4.8-9.9 1.7s7.4-1 6.9-7l-.5-6.1.9-8.1z" fill="#ffcb05"/><path d="M54.8 2.6c-1.6-8.9 4.9 7.7 8.5 13.2s15.3 10.3 20.4 12.7c17.4 4.8 46.3 59.7.8 77.8 12.5 27.7 22.9 62.9-30.1 61.9-46 1.5-46.9-34-30.6-60.7-10.7-5-19.1-13.6-22.7-26.5C-8.5 35.7 47.6 24.6 39 3.6c0 0 5.8 1.7 6.4 10.5 0 0 1.6-6.4 3.7-7.4s-.8 3.3.2 6.1 7.2-1.3 5.5-10.2z" fill="#3ec7f4"/><path d="M27 106.2s-8.4-3-16.8 19.1 4.2 8.1 4.8 5.4-7 23.8 4.1 7.6c-3.7 39 21.9-31.5 7.9-32.1zm54.3-1.2s8.3-3 16.7 19.1-4.2 8.1-4.7 5.4 7 23.8-4.1 7.6c3.7 39-22-31.5-7.9-32.1z" fill="#009fe3"/><path d="M1.1 81C-8.5 35.6 47.6 24.6 39 3.6c0 0 5.8 1.7 6.4 10.5 0 0 1.6-6.4 3.7-7.4s-.8 3.3.2 6.1 7.2-1.3 5.5-10.2 4.9 7.7 8.5 13.2 15.3 10.3 20.4 12.7 29 17.3 24.4 52.3S15 131.5 1.1 81z" fill="#3ec7f4"/><path d="M84.4 101.7c32.6-.7 32.6-49 0-49.6s-32.6 49 0 49.6zm-58.9 3c32.6-.6 32.5-49 0-49.6s-32.6 49 0 49.6z" fill="#fff"/><path d="M26.6 74.2c11.5-.1 11.5 18.1 0 17.9-6.7.2-11.2-7.7-7.8-13.3 2.6 5.6 11.1.3 7.1-4.5zm58.7-4c11.6-.1 11.6 18 0 17.9-6.7.1-11.2-7.7-7.8-13.4 2.6 5.7 11.1.4 7.1-4.5z" fill="#414042"/><path d="M50.5 105.6l7.3 12.6 5.6-13.2c.9-8.8-15.3-11-12.9.6z" fill="#ffcb05"/></svg>